Coordinates
version=1
nRows=32
nColumns=20
inDegrees=yes

Units are S.I. units (second, meters, Newtons, ...)
Angles are in degrees.

endheader
time	Th_rotX	Th_rotY	Th_rotZ	Th_transX	Th_transY	Th_transZ	Clav_rotZ_right	Clav_rotY_right	Clav_rotX_right	Scap_rotZ_right	Scap_rotY_right	Scap_rotX_right	Hum_rotZ_right	Hum_rotY_right	Hum_rotZZ_right	Elb_flex_right	Elb_ProSup_right	wrist_dev_r	wrist_flex_r
      0.97000000	      0.62160699	     -1.49280520	      2.09284372	      0.49383156	      1.41757392	     -0.42756500	     13.51597265	     19.79613118	     20.03290913	    -19.27384907	     -4.62418971	     23.23227807	      2.69096005	    -36.49393039	    -68.74786573	     15.89643006	     50.56799545	     62.32944994	    -13.23786685
      0.97333333	      0.62184444	     -1.49276204	      2.09203342	      0.49384598	      1.41757251	     -0.42757127	     13.51604601	     19.79600511	     20.03288513	    -19.27386480	     -4.62476408	     23.23244361	      2.69094272	    -36.49389765	    -68.74779048	     15.89673134	     50.56774773	     62.32954393	    -13.23789281
      0.97666667	      0.62210804	     -1.49273919	      2.09115206	      0.49385787	      1.41757155	     -0.42757698	     13.51613188	     19.79586394	     20.03279429	    -19.27392085	     -4.62539929	     23.23258985	      2.69099083	    -36.49388373	    -68.74769197	     15.89701888	     50.56749170	     62.32963835	    -13.23791917
      0.98000000	      0.62238487	     -1.49268852	      2.09032350	      0.49386994	      1.41756822	     -0.42758270	     13.51619778	     19.79568812	     20.03275615	    -19.27395931	     -4.62599731	     23.23277703	      2.69101521	    -36.49383414	    -68.74759016	     15.89732832	     50.56723591	     62.32973108	    -13.23794460
      0.98333333	      0.62263328	     -1.49261617	      2.08955458	      0.49388017	      1.41756851	     -0.42758500	     13.51625857	     19.79550920	     20.03277732	    -19.27396490	     -4.62655385	     23.23300669	      2.69099703	    -36.49373988	    -68.74750577	     15.89767751	     50.56702566	     62.32983712	    -13.23796404
      0.98666667	      0.62279728	     -1.49271935	      2.08858580	      0.49388384	      1.41756324	     -0.42758031	     13.51643122	     19.79551055	     20.03258832	    -19.27406425	     -4.62717873	     23.23291714	      2.69102731	    -36.49393629	    -68.74743827	     15.89793631	     50.56678099	     62.32992059	    -13.23798557
      0.99000000	      0.62305634	     -1.49275424	      2.08769333	      0.49389329	      1.41755928	     -0.42758239	     13.51656287	     19.79539160	     20.03244958	    -19.27412655	     -4.62783143	     23.23298901	      2.69107497	    -36.49398232	    -68.74736381	     15.89820451	     50.56653580	     62.33001076	    -13.23800992
      0.99333333	      0.62323843	     -1.49282068	      2.08681978	      0.49390005	      1.41755479	     -0.42758214	     13.51671347	     19.79535408	     20.03234066	    -19.27418501	     -4.62841280	     23.23297859	      2.69107132	    -36.49410690	    -68.74729937	     15.89848723	     50.56629439	     62.33009935	    -13.23803342
      0.99666667	      0.62345088	     -1.49284475	      2.08599190	      0.49390779	      1.41755305	     -0.42758507	     13.51683386	     19.79526002	     20.03226594	    -19.27422733	     -4.62900811	     23.23307465	      2.69108316	    -36.49413669	    -68.74722153	     15.89879632	     50.56605632	     62.33019703	    -13.23805891
      1.00000000	      0.62368270	     -1.49287457	      2.08515470	      0.49391381	      1.41754863	     -0.42758676	     13.51696213	     19.79513748	     20.03218087	    -19.27427869	     -4.62961002	     23.23316191	      2.69110467	    -36.49416827	    -68.74714147	     15.89909535	     50.56581402	     62.33028596	    -13.23808146
      1.00333333	      0.62390845	     -1.49295898	      2.08426906	      0.49391857	      1.41754443	     -0.42758987	     13.51713765	     19.79504176	     20.03203307	    -19.27432874	     -4.63026072	     23.23320291	      2.69115291	    -36.49424298	    -68.74706834	     15.89937443	     50.56557708	     62.33037474	    -13.23810295
      1.00666667	      0.62413552	     -1.49294260	      2.08348764	      0.49392611	      1.41754141	     -0.42758819	     13.51722782	     19.79491561	     20.03200629	    -19.27437285	     -4.63081187	     23.23331925	      2.69115460	    -36.49424084	    -68.74698744	     15.89969329	     50.56533955	     62.33046196	    -13.23812386
      1.01000000	      0.62437338	     -1.49302388	      2.08264728	      0.49393173	      1.41753928	     -0.42758986	     13.51739285	     19.79481402	     20.03188107	    -19.27442424	     -4.63143962	     23.23336588	      2.69119728	    -36.49430778	    -68.74691714	     15.89997716	     50.56510634	     62.33054844	    -13.23814382
      1.01333333	      0.62480211	     -1.49297596	      2.08200413	      0.49394340	      1.41753347	     -0.42759642	     13.51747914	     19.79444849	     20.03190525	    -19.27439365	     -4.63205790	     23.23371710	      2.69123734	    -36.49409489	    -68.74683255	     15.90032541	     50.56489145	     62.33064336	    -13.23816171
      1.01666667	      0.62509879	     -1.49300131	      2.08122625	      0.49394877	      1.41753156	     -0.42759785	     13.51760241	     19.79425648	     20.03182864	    -19.27444649	     -4.63268509	     23.23387449	      2.69129697	    -36.49407287	    -68.74673292	     15.90063837	     50.56464684	     62.33072862	    -13.23818204
      1.02000000	      0.62523698	     -1.49310529	      2.08038044	      0.49394983	      1.41753029	     -0.42759245	     13.51778703	     19.79423980	     20.03170741	    -19.27450774	     -4.63326722	     23.23383826	      2.69129948	    -36.49421124	    -68.74668034	     15.90092797	     50.56441511	     62.33081824	    -13.23820420
      1.02333333	      0.62549930	     -1.49317526	      2.07958681	      0.49395145	      1.41752131	     -0.42758948	     13.51795147	     19.79409237	     20.03160741	    -19.27456563	     -4.63386530	     23.23388130	      2.69133635	    -36.49428469	    -68.74660015	     15.90121867	     50.56417182	     62.33089298	    -13.23822181
      1.02666667	      0.62575245	     -1.49323789	      2.07882381	      0.49395791	      1.41751878	     -0.42758950	     13.51811115	     19.79394615	     20.03152492	    -19.27459688	     -4.63446750	     23.23396621	      2.69136246	    -36.49432210	    -68.74652533	     15.90152618	     50.56394319	     62.33097511	    -13.23823971
      1.03000000	      0.62613774	     -1.49326317	      2.07814675	      0.49396435	      1.41751247	     -0.42759434	     13.51824308	     19.79364995	     20.03147863	    -19.27461936	     -4.63510736	     23.23420891	      2.69143441	    -36.49421224	    -68.74643243	     15.90184783	     50.56371460	     62.33105747	    -13.23825582
      1.03333333	      0.62634776	     -1.49325279	      2.07745997	      0.49396837	      1.41751186	     -0.42759017	     13.51834004	     19.79351164	     20.03148641	    -19.27467144	     -4.63562548	     23.23433367	      2.69142650	    -36.49420837	    -68.74634288	     15.90217595	     50.56347175	     62.33113614	    -13.23827402
      1.03666667	      0.62668044	     -1.49323541	      2.07685095	      0.49397694	      1.41750956	     -0.42759600	     13.51844165	     19.79323861	     20.03151776	    -19.27466850	     -4.63619555	     23.23460434	      2.69144694	    -36.49407187	    -68.74625256	     15.90251921	     50.56324930	     62.33122381	    -13.23829065
      1.04000000	      0.62683763	     -1.49328875	      2.07613404	      0.49397816	      1.41750999	     -0.42759159	     13.51858837	     19.79315691	     20.03148941	    -19.27471673	     -4.63671942	     23.23465536	      2.69143163	    -36.49413562	    -68.74617694	     15.90284197	     50.56302209	     62.33131013	    -13.23830825
      1.04333333	      0.62717638	     -1.49339041	      2.07541251	      0.49397672	      1.41750207	     -0.42758917	     13.51877433	     19.79292896	     20.03137870	    -19.27477409	     -4.63735613	     23.23474897	      2.69151335	    -36.49415193	    -68.74609594	     15.90313237	     50.56279611	     62.33138683	    -13.23832227
      1.04666667	      0.62767978	     -1.49323306	      2.07499731	      0.49398806	      1.41750103	     -0.42759571	     13.51877852	     19.79240948	     20.03157097	    -19.27472163	     -4.63789312	     23.23531060	      2.69153904	    -36.49373621	    -68.74597938	     15.90354405	     50.56259859	     62.33148135	    -13.23833336
      1.05000000	      0.62790583	     -1.49334903	      2.07427959	      0.49398574	      1.41749967	     -0.42758925	     13.51897940	     19.79227940	     20.03146282	    -19.27478973	     -4.63849713	     23.23534683	      2.69158757	    -36.49381482	    -68.74590624	     15.90383563	     50.56236953	     62.33155789	    -13.23834799
      1.05333333	      0.62812723	     -1.49351676	      2.07353290	      0.49398265	      1.41749453	     -0.42758298	     13.51921794	     19.79218204	     20.03131138	    -19.27485922	     -4.63911016	     23.23529963	      2.69164020	    -36.49396710	    -68.74584506	     15.90410352	     50.56214100	     62.33162612	    -13.23835955
      1.05666667	      0.62845993	     -1.49353881	      2.07296199	      0.49398808	      1.41749020	     -0.42758271	     13.51935485	     19.79190384	     20.03131940	    -19.27486819	     -4.63967864	     23.23551475	      2.69167316	    -36.49387820	    -68.74575879	     15.90442525	     50.56191659	     62.33169880	    -13.23837080
      1.06000000	      0.62883682	     -1.49351043	      2.07247024	      0.49399280	      1.41748418	     -0.42758260	     13.51945480	     19.79155336	     20.03139233	    -19.27486481	     -4.64022178	     23.23582327	      2.69170020	    -36.49370241	    -68.74565895	     15.90477643	     50.56169733	     62.33177378	    -13.23838091
      1.06333333	      0.62924835	     -1.49341455	      2.07209224	      0.49400185	      1.41748497	     -0.42758587	     13.51950744	     19.79111860	     20.03156808	    -19.27481191	     -4.64073453	     23.23629318	      2.69170464	    -36.49338029	    -68.74555253	     15.90517640	     50.56150071	     62.33186107	    -13.23838925
      1.06666667	      0.62954907	     -1.49353069	      2.07148810	      0.49399752	      1.41748212	     -0.42758087	     13.51970932	     19.79089786	     20.03149831	    -19.27486495	     -4.64133636	     23.23640510	      2.69177389	    -36.49338025	    -68.74547417	     15.90548266	     50.56128536	     62.33194286	    -13.23840246
      1.07000000	      0.62989810	     -1.49346642	      2.07109270	      0.49400295	      1.41748216	     -0.42758145	     13.51977716	     19.79053521	     20.03165953	    -19.27484562	     -4.64181584	     23.23677968	      2.69176340	    -36.49314410	    -68.74536935	     15.90587541	     50.56107315	     62.33203146	    -13.23841579
      1.07333333	      0.63028953	     -1.49344708	      2.07069194	      0.49400674	      1.41747828	     -0.42757960	     13.51987772	     19.79014874	     20.03177949	    -19.27482661	     -4.64232503	     23.23711900	      2.69177094	    -36.49293411	    -68.74526961	     15.90624358	     50.56086452	     62.33210517	    -13.23842196
